<?xml version="1.0" standalone="no"?>
<!DOCTYPE svg PUBLIC "-//W3C//DTD SVG 20010904//EN"
 "http://www.w3.org/TR/2001/REC-SVG-20010904/DTD/svg10.dtd">
<svg version="1.0" xmlns="http://www.w3.org/2000/svg"
 width="152.000000pt" height="152.000000pt" viewBox="0 0 152.000000 152.000000"
 preserveAspectRatio="xMidYMid meet">
<metadata>
Created by potrace 1.11, written by Peter Selinger 2001-2013
</metadata>
<g transform="translate(0.000000,152.000000) scale(0.100000,-0.100000)"
fill="#000000" stroke="none">
<path d="M635 1480 c-117 -20 -200 -52 -281 -108 -291 -197 -397 -555 -263
-879 151 -362 558 -533 934 -392 218 82 404 312 446 553 18 106 7 254 -26 346
-88 244 -300 428 -555 480 -112 23 -125 23 -255 0z m285 -27 c259 -62 455
-259 522 -525 28 -112 22 -258 -16 -374 -69 -215 -268 -401 -491 -460 -92 -25
-264 -25 -355 -1 -140 37 -280 127 -365 235 -66 82 -131 221 -151 322 -54 272
67 548 314 711 162 107 349 139 542 92z"/>
<path d="M537 1243 c-25 -29 -39 -99 -38 -197 0 -95 10 -142 36 -182 68 -104
145 129 100 301 -24 89 -61 119 -98 78z"/>
<path d="M928 1243 c-44 -50 -60 -202 -33 -308 37 -142 109 -121 135 40 22
136 -15 285 -70 285 -9 0 -24 -8 -32 -17z"/>
<path d="M1201 761 c-20 -13 -6 -42 15 -34 29 11 10 -90 -31 -174 -115 -232
-431 -320 -676 -187 -104 57 -206 199 -224 312 -6 38 -5 42 15 42 15 0 20 5
18 18 -4 21 -76 29 -108 12 -27 -15 -26 -40 3 -40 20 0 25 -8 35 -59 37 -177
184 -328 367 -376 121 -31 295 -9 408 52 126 68 227 206 245 333 7 49 10 55
30 52 16 -2 22 2 22 17 0 29 -86 53 -119 32z"/>
</g>
</svg>
